<svg xmlns="http://www.w3.org/2000/svg" width="64" height="64" fill="none" viewBox="0 0 64 64">
  <rect width="64" height="64" rx="18" fill="#4f46e5" />
  <rect x="4" y="4" width="56" height="56" rx="12" fill="#ffffff" />
  <path d="M4 16c0-6.627 5.373-12 12-12h32c6.627 0 12 5.373 12 12v7H4v-7Z" fill="#4f46e5" />
  <circle cx="14" cy="13.5" r="2.5" fill="#c7d2fe" />
  <circle cx="22" cy="13.5" r="2.5" fill="#c7d2fe" />
  <circle cx="30" cy="13.5" r="2.5" fill="#c7d2fe" />
  <rect x="12" y="28" width="18" height="22" rx="4" fill="#4f46e5" />
  <rect x="35" y="28" width="17" height="7" rx="3.5" fill="#c7d2fe" />
  <rect x="35" y="39" width="17" height="4" rx="2" fill="#c7d2fe" />
  <rect x="35" y="46" width="17" height="4" rx="2" fill="#c7d2fe" />
  <rect x="16" y="32" width="10" height="3" rx="1.5" fill="#ffffff" />
  <rect x="16" y="38" width="7" height="3" rx="1.5" fill="#ffffff" />
  <rect x="16" y="44" width="9" height="3" rx="1.5" fill="#ffffff" />
</svg>
